<svg xmlns="http://www.w3.org/2000/svg" xmlns:xlink="http://www.w3.org/1999/xlink" version="1.1" id="Camada_1" x="0px" y="0px" viewBox="6 204.8 1432 380.3" xml:space="preserve">

<g>
&#x9;<g>
&#x9;&#x9;
&#x9;&#x9;
&#x9;</g>
</g>
<g>
&#x9;<g>
&#x9;&#x9;<g>
&#x9;&#x9;&#x9;
&#x9;&#x9;&#x9;
&#x9;&#x9;&#x9;
&#x9;&#x9;&#x9;
&#x9;&#x9;&#x9;
&#x9;&#x9;&#x9;
&#x9;&#x9;&#x9;
&#x9;&#x9;&#x9;
&#x9;&#x9;&#x9;
&#x9;&#x9;&#x9;
&#x9;&#x9;&#x9;
&#x9;&#x9;&#x9;
&#x9;&#x9;</g>
&#x9;&#x9;<g>
&#x9;&#x9;&#x9;
&#x9;&#x9;&#x9;
&#x9;&#x9;&#x9;
&#x9;&#x9;&#x9;
&#x9;&#x9;&#x9;
&#x9;&#x9;&#x9;
&#x9;&#x9;&#x9;
&#x9;&#x9;&#x9;
&#x9;&#x9;&#x9;
&#x9;&#x9;&#x9;
&#x9;&#x9;&#x9;
&#x9;&#x9;&#x9;
&#x9;&#x9;&#x9;
&#x9;&#x9;&#x9;
&#x9;&#x9;&#x9;
&#x9;&#x9;&#x9;
&#x9;&#x9;</g>
&#x9;</g>
&#x9;<g>
&#x9;&#x9;<path class="st16" d="M754.2,278.8c-49.3,0-82.4,32.4-82.4,79.9c0,46.2,31.5,79.6,74.9,79.6c22.8,0,42.7-9.1,53-23.7v22.8h34.9    v-83C834.7,307.2,800.4,278.8,754.2,278.8z M799.7,359c0,27.1-20,47.7-46.5,47.7c-26.2,0-45.2-20.3-45.2-48.7    c0-28.1,19-48.1,47.1-48.1c26.8,0,44.6,18.1,44.6,45.6V359z"></path>
&#x9;&#x9;
&#x9;&#x9;
&#x9;&#x9;<path class="st16" d="M1395.3,357h-0.1c0,26.8-15.3,49-44.9,49c-29,0-44.6-22.5-44.6-49h0.2v-75.2h-38V357    c0,45.9,32.8,80.8,82.4,80.8c49.9,0,83-34.9,83-80.8v-75.2h-38V357z"></path>
&#x9;&#x9;<path class="st16" d="M950.7,281.8c-49.9,0-83,34.9-83,80.8v75.2h38v-75.2h0.1c0-26.8,15.3-49,44.9-49c29,0,44.6,22.5,44.6,49    h-0.2v75.2h38v-75.2C1033.1,316.7,1000.3,281.8,950.7,281.8z"></path>
&#x9;&#x9;<path class="st16" d="M560.9,281.8c-27.2,0-49.5,10.4-64,27.3c-14.5-16.9-36.5-27.3-63.6-27.3c-45.8,0-77.3,29.4-82.3,69.6    c2.6,1.4,5.2,2.9,7.6,4.4c7.3,4.4,16.3,11.5,27.3,21.7c0.8,0.8,1.6,1.6,2.5,2.4v-17.3h0.1c0-26.8,15.3-49,44.9-49    c29,0,44.6,22.4,44.6,48.8c0,0,0,0.1,0,0.1h-0.2v75.2h0.2h37.8h0.2v-75.2h0.1c0-26.8,15.3-49,44.9-49c29,0,44.6,22.5,44.6,49h-0.2    v75.2h38v-75.2C643.3,316.7,610.6,281.8,560.9,281.8z"></path>
&#x9;&#x9;<g class="st312">
&#x9;&#x9;&#x9;<path class="st16" d="M51.3,553.2c26.1,0,66.1-9.7,119.8-29c52-19.4,96.3-40.1,132.7-62c7.6-4.9,14.6-10,20.9-15.5     c7.5-6.7,12.1-11.4,13.9-14.1c7.5-9.5,11.2-18.2,11.2-25.9v-1c-0.3-4.6-0.8-7-1.7-7c-17.3-7-40.6-10.4-70.1-10.4     c-22.5,0-49.1,2.3-79.8,6.8c-0.1,0-0.3,0-0.4,0c-11.4,44.9-13.3,57.5-13.3,82v0.8c0,1.5,0.1,3.7,0.2,6.6c-0.3,0.6-0.7,1-1.4,1     c-3.2,0-9.5-3.9-18.7-11.8c-8.1-7.3-12.2-12.6-12.2-15.8c-0.1-2.3-0.2-4.1-0.2-5.4c0-32.3,2.6-53.1,26.3-122.8     c10.3-29.1,12.6-37.3,22.9-61.8c0.3-0.4,0.8-0.6,1.2-0.6l0,0c4.5,0.4,11.9,5.3,22.2,14.9c5.8,5.9,8.7,10,8.7,12.2     c-9.5,22.7-10.3,26.7-18.3,49.2h0.2c12.8-7.2,26.1-16.2,40.2-26.9c4.4-3.2,11.3-9.3,20.9-18.4c0-0.3,1.9-2.3,5.6-6     c13.5-16.1,20.3-29.6,20.3-40.6v-2.5c-0.1-4.5-0.5-6.8-1.2-6.8c-10.9-4-25.1-6-42.5-6c-26.4,0-56.1,4.1-89.1,12.4     c-16,4.4-29,9.1-39,14.1c-16.6,8.6-27.1,18.2-31.5,28.6c-1.5,3.7-2.3,7.4-2.3,11v1c0,3,0.6,5.9,1.7,8.7c2.7,3.2,4.1,5.5,4.1,6.8     v0.8c-0.3,0.5-0.8,0.8-1.5,0.8c-3.7-0.4-10.4-4.8-20.1-13.1c-11.1-10.6-16.6-20.2-16.6-28.8v-2.5c0-8.8,4.8-17.7,14.3-26.9     c8.5-7.5,18.9-13.7,31.3-18.7c10.4-4.5,24.9-8.9,43.3-13.1c26.1-5.8,51-8.7,74.6-8.7c23.2,0,43.1,3.8,59.7,11.4     c6.6,3.4,13.6,7.8,21.1,13.3c17.5,13.9,26.3,27.9,26.3,41.9c0,18.7-13.6,39.7-40.8,63.2c-10.9,8.9-20.1,15.6-27.4,20.3     c-2.1,1.3-3.1,2-3.1,2.1c5.8,0,15.9,1,30.3,2.9c10,1.8,18.5,3.9,25.5,6.4c8.8,3.2,16.4,6.9,23,11c5.5,3.4,12.6,9,21.1,16.8     c12.4,11.9,18.5,22.8,18.5,32.8v1.7c0,13.4-9.5,28.1-28.6,44.2c-8.1,6.4-17.9,12.9-29.4,19.5c-32.8,18.8-71.7,36.7-116.5,53.7     c-55.5,20.7-97.9,31.1-127.3,31.1c-15.3,0-27.5-3.1-36.5-9.3c-2.7-1.4-6.4-4-11-7.7c-7.3-6.3-12.5-11.5-15.5-15.6     c-4.6-6.4-7-12.8-7-19.1V527c0-10.3,6.5-25.6,19.5-46c8.1-12.2,18.8-26.1,32.1-41.7c6-7.1,9.4-10.9,10-11.4h0.8l-33.5,51.3     C9,535.2,34.5,554.2,51.3,553.2"></path>
&#x9;&#x9;</g>
&#x9;&#x9;<path class="st16" d="M1147.5,443.4c49.9,0,83-34.9,83-80.8c0-21.5-7.5-40.2-20.3-54h26.2v-24.7h-88.9    c-49.6,0-82.4,32.4-82.4,78.6C1065.1,408.4,1097.9,443.4,1147.5,443.4z M1147.5,315.4c29.6,0,44.9,20,44.9,47.1    c0,26.8-15.3,49-44.9,49c-29,0-44.6-22.5-44.6-49C1102.9,335.4,1118.2,315.4,1147.5,315.4z"></path>
&#x9;&#x9;<g>
&#x9;&#x9;&#x9;<path class="st16" d="M1230.5,474.5l-23.5-23.2c-15,13.7-35.5,21.7-59.2,21.7c-22.1,0-41.4-7.1-56.1-19.3l-23.3,23.5     c20.7,18.2,48.3,28.9,79.4,28.9C1180.6,506.1,1209.5,494.3,1230.5,474.5z"></path>
&#x9;&#x9;</g>
&#x9;</g>
</g>
</svg>