<svg xmlns="http://www.w3.org/2000/svg" xmlns:xlink="http://www.w3.org/1999/xlink" id="Layer_1" data-name="Layer 1" viewBox="-1 54.4 246.3 33.6" style=""><g class="cls-2"><path class="cls-5" d="M242.43,157.49c.29-1,4.26-11.73,4.46-12.27.13-.34.3-.63.46-.63s.21.29.34.58c.21.63,3.59,11.07,4,12.32Zm9.73,1.5c.58,1.67,2.29,7,2.62,8.52.3,1.17-.08,1.59-1.25,1.59h-1c-.25,0-.38,0-.38.29v1c0,.25.13.38.34.38,1,0,2.42-.13,5.88-.13s4.26.13,5,.13c.3,0,.42-.09.42-.3v-1c0-.17-.08-.29-.33-.29h-1.38a3.12,3.12,0,0,1-2.84-1.88c-.58-1.21-3.3-9-4.26-12.23-.79-2.67-4-12-4.84-14.66-.13-.46-.21-.71-.46-.71s-.33.17-.54.38a8.5,8.5,0,0,1-3.47,2.09c-.29.08-.37.25-.37.37a1.07,1.07,0,0,0,.29.54,1.71,1.71,0,0,1,0,1.42c-.38,1.13-3.76,10.11-4.05,10.94-1.21,3.42-4.26,11.15-4.55,11.82-.59,1.33-1.17,1.92-2.42,1.92H233a.29.29,0,0,0-.33.29v1c0,.25.08.34.29.34.59,0,1.51-.13,4.55-.13,2.47,0,4.18.13,4.76.13.21,0,.34-.09.34-.38v-1c0-.21-.13-.29-.42-.29h-2c-.92,0-1.42-.34-1.42-.92,0-.21.08-.63.12-.92.21-.88,2.51-7.22,2.92-8.27Zm-32.28,12.24c5.89,0,9.94-3.39,12.45-7,.12-.21,0-.29-.09-.37l-.54-.42c-.13-.13-.21-.08-.33.13a12.79,12.79,0,0,1-10.32,5.3,9.27,9.27,0,0,1-8-3.51,16.7,16.7,0,0,1-4-10.73c0-6.09,3-12.73,10.44-12.73a9.68,9.68,0,0,1,7.26,3.21,16.38,16.38,0,0,1,3.26,5.18c.12.33.21.37.41.33l.63-.17c.17,0,.21-.2.17-.41-.21-1.17-1-7.31-1-8.1,0-.59-.08-.67-.46-.67s-.45,0-.54.25l-.33,1.21c-.09.29-.29.34-.84,0a17.4,17.4,0,0,0-8.43-2.29,14.57,14.57,0,0,0-10.44,4.21,15.9,15.9,0,0,0-4.25,11.07c0,4,1.46,8.85,4.46,11.69a14.57,14.57,0,0,0,10.56,3.84M193.21,156c0,2.21-.13,11.23-.21,11.86-.17,1.08-1,1.21-1.88,1.21h-2.34c-.21,0-.33.08-.33.25v1.13c0,.16.12.25.33.25.46,0,2.26-.13,6.22-.13,3.63,0,5.31.13,5.81.13.25,0,.37-.09.37-.25v-1.09c0-.21-.12-.29-.33-.29h-1.72c-1.33,0-2-.21-2-1.51,0-.46-.12-10.1-.12-10.52v-3.21c0-.5.12-9.73.12-10.15,0-.83.63-1.16,1.46-1.16h2c.21,0,.33-.09.33-.3v-1a.26.26,0,0,0-.29-.29c-.59,0-1.92.12-5.64.12-3.88,0-6-.12-6.51-.12-.17,0-.29.08-.29.25v1.12c0,.17.12.26.33.26H191c1.59,0,2,.41,2.09,1.42,0,.62.17,8.14.17,9.14Zm-33.4-2.46c0,7.43-.09,12.19-.17,13-.21,2-.67,2.55-1.88,2.55h-1.42c-.21,0-.25.12-.25.25v1.08c0,.21,0,.3.21.3.42,0,3.3-.13,4.18-.13,1.12,0,3.63.13,4.05.13s.33-.09.33-.34v-.92c0-.25,0-.37-.33-.37h-1.26c-1.12,0-1.37-.8-1.54-2.42-.08-.84-.42-7.64-.42-11.53v-9.27h.25c.25.34,7.93,10,8.39,10.4.25.25,3.3,4.09,6.22,7.72,2.59,3.26,5.06,6.35,5.1,6.43a1.41,1.41,0,0,0,1,.67c.17,0,.21-.42.21-1V154.49c0-2.72,0-6.85.16-9.65.09-1.58.51-2.29,1.63-2.29h1.13c.17,0,.25-.13.25-.3v-1c0-.17,0-.29-.33-.29-.55,0-1.55.12-4,.12-2.68,0-4-.12-4.59-.12-.17,0-.26.08-.26.25v1.08c0,.21.09.3.26.3H178a2.23,2.23,0,0,1,2.3,1.62,48.91,48.91,0,0,1,.5,6.43c.08,2.09.12,4.14.12,7.85v5h-.16c-1-1.34-8.06-10-8.52-10.56s-8.56-11.11-8.77-11.36a1.46,1.46,0,0,0-1.21-.54c-.5,0-1.38.08-2.8.08s-2.33,0-3-.08-1,0-1.17,0-.25.08-.25.25v1.08c0,.13,0,.3.25.3l1.71,0c1.51,0,2.76,1.42,2.76,3.88Zm-21.33,17.66c3.63,0,6.17-1,7.85-2.51,2.33-2,3.25-4.63,3.5-8.06.13-1.62.21-8.93.21-9.52s0-6.51.08-6.92.25-1.67,1.8-1.67h1.71c.21,0,.25-.17.25-.42v-.92c0-.13,0-.29-.42-.29s-1.71.12-4.59.12-4.72-.12-5.13-.12c-.25,0-.3.08-.3.29v1c0,.21.05.34.3.34h1.83a1.85,1.85,0,0,1,1.88,1.83c.13,1.05.21,3.47.21,6.64V160c0,3.08-.54,5.59-2.17,7.34a8.86,8.86,0,0,1-6.26,2.3c-2.42,0-5.1-.75-6.64-3a10.09,10.09,0,0,1-1.34-5.3c0-1.33-.21-6.64-.21-8.85v-2.76c0-2.13.05-5.05.09-5.42a1.87,1.87,0,0,1,2-1.71h2.09c.29,0,.33-.09.33-.3v-1.08c0-.17,0-.25-.37-.25s-2.46.12-5.72.12-5.3-.12-5.72-.12-.38.08-.38.33v.92c0,.29,0,.38.3.38h2c1.29,0,1.58.66,1.58,2.13v9.93c0,5.47.17,8.27.67,10.14a7.6,7.6,0,0,0,5,5.6,15.6,15.6,0,0,0,5.64.88m-45.34-29.6a1,1,0,0,0-1.09-.71c-.5,0-1.58.12-3.55.12-3.54,0-4.67-.12-5.09-.12-.25,0-.29.12-.29.25v1.08c0,.17,0,.3.29.3H86c1.71,0,1.67.58,1.71,1.54,0,1.21,0,7.52,0,8.1,0,.75-.13,11.44-.62,14.4-.26,1.42-.63,2.51-2.22,2.51H82.66c-.21,0-.25.12-.25.25v1c0,.33,0,.38.37.38s1.84-.13,5.39-.13,4.59.13,5,.13.38-.13.38-.3v-1c0-.17,0-.29-.3-.29H91.22c-1.34,0-1.71-.67-1.92-3-.13-1.46-.09-10.27-.09-10.77s.09-11.06.25-11.65c.59.5,4.39,9.85,5.18,11.77.21.5,5.55,13.7,5.68,14s.37.75.62.75.67-.63.84-1,4.8-11,5-11.52,6.14-13.57,6.56-14.11h.08c.13.37.13,7.8.13,10.56v2.67c0,3.09,0,10.35-.09,10.85-.08,1.26-.46,1.51-1.17,1.51H109.5c-.29,0-.33.08-.33.29v1c0,.25,0,.38.33.38.55,0,2.17-.13,6-.13,4.6,0,5.35.13,5.85.13.33,0,.37-.13.37-.38v-1c0-.17,0-.29-.29-.29H119c-1,0-1.42-.67-1.42-2.26,0-.83-.12-7.59-.12-9.68v-2.93c0-2.79.12-8.76.12-10,0-1,.13-1.71,1.38-1.71h1.83c.3,0,.34-.13.34-.38v-1c0-.17,0-.29-.25-.29-.46,0-1.88.12-7.43.12-.42,0-.88,0-1,.5-.13.84-4.68,10.65-5,11.23s-4.51,10.52-5.09,11.15Zm-27.89,28c-3.55,0-11.19-3.88-11.19-14.86a14.86,14.86,0,0,1,4.18-10.31A8,8,0,0,1,64.83,142C69.47,142,76,147.39,76,156.53c0,3.72-1.55,13.11-10.73,13.11m-.33,1.59a14.19,14.19,0,0,0,12-5.89,15.21,15.21,0,0,0,3.13-9.14,16.08,16.08,0,0,0-5.72-12.49A14.08,14.08,0,0,0,65,140.42a13.64,13.64,0,0,0-11.31,5.3,16.2,16.2,0,0,0-3.89,10.39c0,6.1,3.18,10.61,6.14,12.4a18.28,18.28,0,0,0,9,2.72m-30.4,0c5.89,0,9.94-3.39,12.44-7,.13-.21,0-.29-.08-.37l-.54-.42c-.13-.13-.21-.08-.34.13a12.76,12.76,0,0,1-10.31,5.3,9.26,9.26,0,0,1-8-3.51,16.7,16.7,0,0,1-4-10.73c0-6.09,3-12.73,10.44-12.73a9.68,9.68,0,0,1,7.26,3.21,16.38,16.38,0,0,1,3.26,5.18c.12.33.2.37.41.33l.63-.17c.17,0,.21-.2.17-.41-.21-1.17-1.05-7.31-1.05-8.1,0-.59-.08-.67-.46-.67s-.45,0-.54.25l-.33,1.21c-.09.29-.29.34-.84,0a17.4,17.4,0,0,0-8.43-2.29,14.57,14.57,0,0,0-10.44,4.21,15.91,15.91,0,0,0-4.26,11.07c0,4,1.46,8.85,4.47,11.69a14.57,14.57,0,0,0,10.56,3.84" transform="translate(-19.49 -84.28)"></path></g></svg>