<svg xmlns="http://www.w3.org/2000/svg" xmlns:xlink="http://www.w3.org/1999/xlink" version="1.1" id="a" x="0px" y="0px" viewBox="-1 -1 285.8 72.2" xml:space="preserve">
<g>
&#x9;<g>
&#x9;&#x9;<path class="st0" d="M214.7,1.7h9.2v49.2c0,15.5,10.4,19.3,26.5,19.3c12.9,0,23.8-6.2,23.8-21.4V8.4c0-5,1.1-6.7,5.2-6.7h4.4V0.1&#xA;&#x9;&#x9;&#x9;h-22.6v1.6h5.5c4.3,0,5.9,1.4,5.9,6.6v39.3c0,14.5-8.6,21-22.2,21c-8.3,0-16.6-5-16.6-16.1V1.6h10.3V0h-29.5L214.7,1.7L214.7,1.7z&#xA;&#x9;&#x9;&#x9; M142.9,59c0,6.4-0.9,8.1-6,8.1h-2.5v1.6h20v-1.6h-3.9c-5.1,0-6-1.6-6-8.1V6.6h0.2l24.1,60.5h0.9l23.7-61.7h0.2v61.7h-9.1v1.6H212&#xA;&#x9;&#x9;&#x9;v-1.6h-8.6V1.7h8.6V0.1h-18.5l-20,51.8L153.1,0.1h-18.8v1.6h8.6L142.9,59L142.9,59z M63.4,1.7h9.2v49.2&#xA;&#x9;&#x9;&#x9;c0,15.5,10.4,19.3,26.5,19.3c12.9,0,23.8-6.2,23.8-21.4V8.4c0-5,1.1-6.7,5.2-6.7h4.4V0.1H110v1.6h5.4c4.3,0,5.9,1.4,5.9,6.6v39.3&#xA;&#x9;&#x9;&#x9;c0,14.5-8.6,21-22.2,21c-8.3,0-16.6-5-16.6-16.1V1.6h10.3V0H63.4V1.7z M9.7,67.1H0v1.6h57.9V46.3h-1.6c0,18.4-5.8,20.8-24.5,20.8&#xA;&#x9;&#x9;&#x9;H19.6V1.7h9.7V0.1H0v1.6h9.7V67.1L9.7,67.1z"></path>
&#x9;</g>
</g>
</svg>